# xmcd
# Track frame offsets:
# 150
# 16902
# 30507
# 48305
# 67380
# 85065
# 105379
# 119990
# 131814
# 151166
# 169897
# 185517
# 203212
# 224032
# 225706
# 227094
# 228230
# 229431
# 231081
#
# Disc length: 3092 seconds
# Revision: 0
# Processed by: cddbd v1.5.2PL0 Copyright (c) Steve Scherf et al.
# Submitted via: VisiTrax 2.9.10.228 - For more info visit www.synapsa.com
#
DISCID=0e0c1213
DTITLE=Various Artist - CDX 404 Sept. 2006
DYEAR=2006
DGENRE=Country
TTITLE0=Little Big Town - Good as gone
TTITLE1=Ray Scott - I didn't come here to talk
TTITLE2=Ashley Monroe- Ronnie Dunn - I don't want to
TTITLE3=Keith Urban - Once in a lifetime
TTITLE4=Carolyn Dawn Johnson - Taking back my brave
TTITLE5=Sara Evans - You'll always be my baby
TTITLE6=Michael Lee Austin - Another fine mess
TTITLE7=Doo-Wah Riders - Dear beer
TTITLE8=Jerry Adams - Haggard state of mine
TTITLE9=Vince Hatfield - Lost without you
TTITLE10=Longhaulers - One last cup of coffe
TTITLE11=Robin Ebglish - Yellow rose in me
TTITLE12=Doug Spartz - Name on the wall
TTITLE13=Sugarland - liner
TTITLE14=Sugarland - liner
TTITLE15=Sugarland - liner
TTITLE16=Sugarland - liner
TTITLE17=Sugarland - liner
TTITLE18=Sugarland - liner
EXTD=
EXTT0=
EXTT1=
EXTT2=
EXTT3=
EXTT4=
EXTT5=
EXTT6=
EXTT7=
EXTT8=
EXTT9=
EXTT10=
EXTT11=
EXTT12=
EXTT13=
EXTT14=
EXTT15=
EXTT16=
EXTT17=
EXTT18=
PLAYORDER=
